PathFileType  4	(X/Y/Z) C:\Users\15086\Documents\GitHub\mocap-processing\BertecTesting2023-09-14\
DataRate	CameraRate	NumFrames	NumMarkers	Units	OrigDataRate	OrigDataStartFrame	OrigNumFrames
  200.0		  200.0		   22		     10		 mm	  200.0	      1663	   1900
Frame#	Time	r_calc			r_toe			r_meta			r_ankle			r_mankle			l_calc			l_toe			l_meta			l_ankle			l_mankle			
		X1	Y1	Z1	X2	Y2	Z2	X3	Y3	Z3	X4	Y4	Z4	X5	Y5	Z5	X6	Y6	Z6	X7	Y7	Z7	X8	Y8	Z8	X9	Y9	Z9	X10	Y10	Z10	

1663	8.31000	1133.192	187.970	-297.523	1339.681	180.889	-227.451	1288.357	157.740	-192.814	1184.986	229.800	-220.915	1218.720	246.300	-299.245	300.510	344.564	-367.236	375.804	143.313	-373.463	343.688	182.179	-426.160	365.034	309.380	-417.865	382.311	290.436	-338.772
1664	8.31500	1153.437	179.126	-293.129	1361.650	181.661	-232.077	1312.314	153.978	-197.383	1204.663	220.993	-223.041	1236.757	240.138	-300.208	292.019	366.385	-369.330	358.137	161.705	-373.906	328.114	201.603	-427.054	354.505	328.229	-420.753	371.353	308.739	-338.683
1665	8.32000	1173.722	168.850	-299.215	1380.881	183.378	-236.962	1334.777	151.712	-203.502	1221.832	213.033	-225.017	1251.521	236.352	-302.400	286.527	388.834	-370.160	341.441	180.929	-374.446	313.282	222.081	-427.803	347.253	347.292	-422.683	363.455	325.325	-339.449
1666	8.32500	1189.839	161.430	-300.299	1396.853	185.311	-242.119	1352.973	149.278	-208.390	1236.667	205.732	-226.389	1263.810	232.456	-303.663	283.272	411.502	-370.793	325.763	200.946	-375.135	299.802	243.652	-428.433	340.484	368.089	-422.232	355.022	344.932	-341.797
1667	8.33000	1202.892	155.183	-300.994	1409.888	187.448	-247.788	1369.032	147.513	-214.473	1249.134	199.134	-227.041	1273.611	229.162	-304.774	282.543	435.254	-371.709	311.150	221.985	-375.593	287.954	266.312	-429.028	335.965	386.625	-422.228	349.783	363.718	-342.387
1668	8.33500	1212.810	149.960	-301.186	1419.477	188.506	-253.969	1381.620	146.287	-219.999	1259.214	193.819	-227.864	1280.523	226.650	-306.864	283.846	458.882	-372.040	299.389	244.033	-376.992	278.841	289.699	-430.039	333.932	406.737	-423.095	346.632	382.678	-343.497
1669	8.34000	1219.562	145.173	-301.220	1426.570	189.475	-259.834	1390.697	144.893	-225.166	1266.693	189.680	-229.666	1285.296	223.348	-306.582	287.853	481.889	-371.700	289.423	266.742	-378.125	271.219	313.843	-431.107	334.070	426.415	-422.889	345.710	401.699	-344.430
1670	8.34500	1223.447	140.843	-300.997	1430.219	188.992	-264.550	1396.138	143.002	-229.585	1270.716	186.190	-230.629	1287.457	220.801	-308.495	294.143	504.512	-371.902	282.001	288.636	-382.440	266.558	338.309	-432.397	337.062	446.667	-423.346	346.521	420.553	-344.639
1671	8.35000	1224.254	136.855	-301.810	1430.991	187.286	-267.929	1398.177	140.280	-232.845	1271.610	182.640	-231.428	1287.346	217.390	-309.328	302.363	526.388	-371.499	276.938	312.795	-380.985	264.144	362.597	-435.781	340.418	466.875	-424.305	349.047	439.062	-345.347
1672	8.35500	1222.110	132.595	-302.565	1428.463	183.456	-269.721	1396.451	136.052	-235.056	1269.356	178.458	-232.086	1284.525	213.181	-309.593	311.844	547.024	-370.768	274.412	335.513	-382.408	264.399	386.547	-434.751	346.190	485.820	-424.128	353.241	456.946	-345.191
1673	8.36000	1217.259	128.386	-303.780	1423.435	178.196	-269.006	1391.426	130.584	-236.134	1264.119	173.555	-232.902	1279.806	208.958	-310.254	322.580	566.688	-369.788	274.204	357.212	-384.330	266.867	409.471	-435.603	353.056	504.524	-424.255	359.329	474.094	-345.480
1674	8.36500	1209.675	123.855	-305.343	1415.650	171.118	-268.208	1383.239	123.766	-236.126	1256.107	168.099	-233.583	1273.149	203.800	-309.940	334.310	584.942	-368.441	276.107	378.249	-386.202	271.653	432.358	-436.323	361.589	522.121	-423.940	366.517	490.286	-345.796
1675	8.37000	1199.734	119.026	-307.657	1406.122	163.104	-267.177	1371.972	115.958	-235.386	1245.716	162.367	-234.487	1264.519	198.018	-310.898	347.110	601.924	-366.947	280.616	397.885	-388.764	277.818	453.191	-437.419	371.577	538.726	-423.425	375.390	505.434	-345.457
1676	8.37500	1187.423	114.015	-310.052	1394.252	153.723	-265.507	1358.130	107.523	-233.805	1232.814	156.473	-235.702	1253.878	191.502	-312.014	360.685	617.353	-364.842	286.704	416.300	-391.407	286.295	472.533	-437.799	381.844	552.863	-423.533	385.229	519.603	-345.204
1677	8.38000	1173.074	108.801	-311.812	1379.803	142.922	-262.877	1341.679	98.377	-232.059	1217.961	150.570	-236.949	1241.446	184.616	-313.286	375.063	631.520	-362.530	294.542	433.070	-393.180	295.769	490.851	-438.544	394.774	568.229	-422.503	396.465	532.341	-344.933
1678	8.38500	1156.694	103.429	-314.178	1363.412	131.822	-260.649	1323.293	89.140	-230.203	1201.427	144.505	-238.096	1227.296	177.330	-314.609	390.457	644.238	-360.641	303.833	448.630	-395.130	306.581	507.535	-439.230	407.683	581.570	-421.437	408.764	544.016	-345.522
1679	8.39000	1138.673	97.885	-315.187	1345.609	120.234	-258.640	1303.209	79.556	-228.976	1183.660	138.391	-239.094	1211.396	169.667	-315.746	406.430	655.661	-358.876	314.606	462.948	-396.893	319.495	524.572	-438.825	421.612	593.950	-420.907	422.091	554.324	-344.993
1680	8.39500	1118.994	92.340	-317.437	1326.079	108.248	-257.436	1281.817	69.684	-227.883	1164.721	132.340	-240.204	1194.223	162.216	-317.108	422.994	665.608	-356.935	326.446	475.522	-398.313	331.969	536.390	-440.421	436.713	604.119	-420.504	436.090	563.273	-345.165
1681	8.40000	1098.445	87.171	-318.313	1305.585	96.058	-256.917	1259.707	59.662	-226.838	1145.048	126.143	-240.972	1175.889	154.490	-318.366	440.025	674.063	-355.575	339.131	486.533	-399.305	346.242	547.964	-440.662	450.663	611.603	-418.765	450.909	571.076	-344.872
1682	8.40500	1076.943	81.722	-318.148	1284.513	83.803	-257.391	1237.208	49.636	-227.446	1124.993	119.997	-241.278	1156.568	146.528	-319.946	457.323	681.118	-354.692	353.322	496.513	-399.600	361.333	557.867	-441.091	468.575	621.103	-419.589	466.273	577.911	-345.436
1683	8.41000	1055.062	76.295	-317.522	1263.363	71.567	-258.851	1214.648	40.615	-227.176	1105.313	113.746	-241.677	1136.716	138.598	-320.785	475.061	687.087	-354.102	367.663	503.912	-401.681	377.199	566.132	-441.800	485.336	626.516	-419.606	482.426	583.371	-345.374
1684	8.41500	1031.950	72.187	-317.427	1243.089	62.071	-264.517	1191.668	41.711	-227.066	1085.620	106.824	-242.259	1116.218	131.529	-322.823	492.425	691.116	-353.537	383.298	510.127	-402.793	393.794	572.402	-442.468	502.488	630.522	-419.919	498.858	587.746	-345.836
